<svg xmlns="http://www.w3.org/2000/svg" xmlns:xlink="http://www.w3.org/1999/xlink" x="0" y="0" version="1.1" viewBox="0 0 32 32" xml:space="preserve" style="enable-background:new 0 0 32 32"><g><polygon style="fill:#fff" points=".9 9.8 8.5 15.4 .9 21.1"/><polygon style="fill:#fff" points="8.5 1.3 8.5 11.9 13.2 15.4 8.5 19 8.5 29.6 31.1 15.4"/></g><g><polygon points="12.4 16 13.2 15.4 8.5 11.9 8.5 6.5 8.5 1.3 7.5 .7 7.5 12.4"/><polygon points="31.1 15.4 8.5 29.6 8.5 19 7.5 19.7 7.5 29.6 7.5 31.3 9 30.4 32 16"/></g><polygon points="8.5 15.4 .9 21.1 .9 9.8 0 9.1 0 21.1 0 23 1.5 21.9 9.3 16"/></svg>